PathFileType	4	(X/Y/Z)	C:\Users\dbl\Desktop\20210112\20210112\bx_n_0_501-Unnamed.trc
DataRate	CameraRate	NumFrames	NumMarkers	Units	OrigDataRate	OrigDataStartFrame	OrigNumFrames
50.00	50.00	       16	0	mm	50.00	170	       339
Frame#	Time	
		

170	3.380				-771.41022	272.61914	739.20087										-757.95050	-22.55616	206.75497	-704.79358	19.48491	526.20752				-679.93921	156.43613	160.36375							-548.19550	211.67328	163.82173				-755.95343	137.83775	571.78656							-797.51257	183.00131	182.99495	-764.35358	225.50558	203.92361	-590.15198	182.92705	173.25293	-882.57965	296.26184	144.78772	-778.06921	246.35483	571.86591	-640.57208	274.10385	159.05609	-601.89972	274.82126	158.83119	-528.22430	303.95291	146.25700										-745.37988	75.41351	576.74377	-794.37738	32.35764	174.53513				-876.12219	-78.89765	141.41621													-723.53845	145.17627	220.32747													-517.94177	-72.92817	143.09164	
171	3.400				-771.71997	272.14584	739.15961										-757.72583	-22.68890	206.27701	-704.85358	19.16136	526.48065				-679.71967	156.23488	160.66508							-548.01459	211.80598	163.44122				-755.96277	137.89285	571.86316							-797.25458	182.80710	182.86487	-764.34607	225.62936	204.04828	-590.29327	182.93825	173.42656	-882.76636	296.18619	144.58238	-778.42010	246.19101	571.78375	-640.57208	274.10385	159.05609	-601.69965	275.01764	158.82217	-528.20795	303.80432	146.30266										-745.21307	75.25632	576.73724	-794.34521	32.26702	174.78235				-875.78070	-78.64841	140.93260													-723.77332	145.09369	220.16327													-517.89923	-72.90125	143.28708	
172	3.420				-771.90015	272.20490	739.58142										-757.72583	-22.68890	206.27701	-704.85358	19.16136	526.48065				-679.63867	156.13190	160.35982							-548.07196	211.72296	163.76083				-755.95343	137.83775	571.78656							-797.43842	182.81017	182.96095	-764.35358	225.50558	203.92361	-590.12616	183.06059	173.41615	-882.77521	296.18719	144.59406	-778.45795	246.14595	571.82233	-640.57208	274.10385	159.05609	-601.65936	275.03168	159.05339	-528.21393	303.90378	146.26039										-745.49915	74.86280	576.40698	-794.36584	32.39194	174.62144										-876.12219	-78.89765	141.41621							-723.67737	145.26419	220.19156													-518.00769	-72.99992	143.10075	
173	3.440				-772.12335	271.93234	739.40820										-757.72583	-22.68890	206.27701	-704.21820	18.73040	526.34192				-679.70038	156.04497	160.57922							-548.06299	211.77477	163.85442				-755.91602	137.72397	571.76825							-797.38080	182.92648	182.94344	-764.35358	225.50558	203.92361	-590.11774	183.11192	173.43832	-882.75586	296.10339	144.51614	-778.53442	245.91164	571.95721	-640.57208	274.10385	159.05609	-601.81171	274.95877	158.99542	-528.12152	303.98355	146.23151										-745.49915	74.86280	576.40698	-794.27118	32.40074	174.54965										-876.14905	-78.79788	141.54057							-723.63440	145.00578	220.29918													-517.94177	-72.92817	143.09164	
174	3.460				-772.09113	271.67416	739.53235										-757.72583	-22.68890	206.27701	-704.26117	18.78742	526.32928				-679.62524	156.45134	160.44632							-548.12097	211.88225	163.86302				-755.95343	137.83775	571.78656							-797.43842	182.81017	182.96095	-764.35358	225.50558	203.92361	-590.03241	183.02988	173.63824	-882.48138	296.00897	144.67094	-778.64722	245.62791	571.63745	-640.57208	274.10385	159.05609	-602.00104	274.93240	158.59067	-528.14905	303.87628	146.15105										-745.46234	74.53613	576.43518	-794.27124	32.20429	174.47716										-876.12219	-78.89765	141.41621							-723.52130	145.29192	220.48758													-518.03461	-73.19984	143.13161	
175	3.480				-772.08221	271.55557	739.57355										-757.72583	-22.68890	206.27701	-704.38098	18.63767	526.41125				-679.78650	156.21289	160.51903							-548.09979	211.68309	163.65973				-755.91602	137.72397	571.76825							-797.47919	182.87813	182.87935	-764.50232	225.70392	203.99654	-590.10663	183.10997	173.64970	-882.77386	296.17682	144.58578	-778.63074	245.86334	571.89154	-640.57208	274.10385	159.05609	-601.67511	275.18140	158.90442	-528.12378	304.02219	146.31056										-745.23175	74.80220	576.64752	-794.31848	32.30164	174.49423										-875.78070	-78.64841	140.93260							-723.67737	145.26419	220.19156													-517.92590	-72.87240	142.99782	
176	3.500				-772.41461	271.13077	739.36981										-757.72583	-22.68890	206.27701	-704.31958	18.27972	526.38116				-679.71967	156.23488	160.66508							-548.08405	211.84334	163.70595				-755.95343	137.83775	571.78656							-797.47919	182.87813	182.87935	-764.62311	225.35146	203.58409	-590.19910	183.21217	173.76878	-882.53406	296.09598	144.57982	-778.89111	245.58157	571.44128	-640.57208	274.10385	159.05609	-601.68689	275.20135	158.66942	-528.06964	303.89972	146.22174										-745.10059	74.46449	576.39990	-794.21014	32.27721	174.42563										-875.76721	-78.54784	141.02655							-723.56604	145.39731	220.13342													-517.95282	-73.07230	143.02869	
177	3.520				-772.38922	270.93939	739.34375										-757.85883	-22.66216	206.14934	-704.10394	18.51865	526.28424				-679.84222	156.25229	160.43500							-548.09283	211.75432	163.90044				-755.55182	137.39035	571.75159							-797.47919	182.87813	182.87935	-764.56982	225.49216	203.81670	-590.17419	183.10747	173.83957	-882.66956	296.13403	144.68401	-778.65350	245.52533	571.79028	-640.57208	274.10385	159.05609	-601.92206	275.25867	158.71507	-528.06647	303.83759	146.25410										-744.80103	74.38608	576.63324	-794.27118	32.40074	174.54965										-875.78070	-78.64841	140.93260							-723.67737	145.26419	220.19156													-517.95282	-73.07230	143.02869	
178	3.540				-772.46204	270.93747	739.44830										-757.72583	-22.68890	206.27701	-704.04248	18.10851	526.36011				-679.78650	156.21289	160.51903							-548.19733	211.68811	164.07755				-755.37262	137.46321	571.76831							-797.49866	182.82561	182.80565	-764.56982	225.49216	203.81670	-590.17548	183.15901	173.70190	-882.62378	296.22037	144.70464	-778.54736	245.30305	571.80951	-640.60931	274.18417	158.96268	-601.93854	275.26465	158.85091	-527.98627	304.02188	146.36497										-744.64282	74.16165	576.47742	-794.22388	32.30339	174.53258										-875.76721	-78.54784	141.02655							-723.55646	145.28833	220.02644													-518.00201	-73.05941	143.04195	
179	3.560				-772.33325	270.85007	739.38116										-757.92615	-22.70377	206.02141	-703.79028	17.78918	526.56519				-679.63202	156.05238	160.71864							-548.25598	211.68713	163.99577				-755.37262	137.46321	571.76831							-797.58472	182.77299	182.81499	-764.62976	225.33763	203.56500	-590.20947	183.16185	173.92583	-882.62518	296.03879	144.44261	-778.95911	244.31056	571.31732	-640.60931	274.18417	158.96268	-601.89972	274.82126	158.83119	-528.21948	303.77182	146.12643										-744.54938	74.23223	576.55542	-794.31848	32.30164	174.49423										-875.78070	-78.64841	140.93260							-723.58533	145.30997	220.05281													-517.91980	-73.01032	143.17534	
180	3.580				-772.22430	270.67349	739.45764										-757.71381	-22.81290	206.14877	-703.87445	17.70268	526.50098				-679.62524	156.45134	160.44632							-548.19653	211.71730	164.08061				-755.32996	137.38986	571.61414							-797.49866	182.82561	182.80565	-764.62976	225.33763	203.56500	-590.20947	183.16185	173.92583	-882.59625	296.22037	144.63243	-778.92749	244.22041	571.52356	-640.57208	274.10385	159.05609	-601.79944	275.11667	159.00517	-528.21893	303.83734	146.29216										-744.54938	74.23223	576.55542	-794.21014	32.27721	174.42563										-875.78070	-78.64841	140.93260							-723.67737	145.26419	220.19156													-517.96869	-73.12807	143.12250	
181	3.600				-772.09210	270.08990	739.24121										-758.17303	-22.64990	205.91069	-703.81586	17.63064	526.49408				-679.71967	156.23488	160.66508							-548.16760	211.74165	163.84595				-755.13214	137.19366	571.83191							-797.53857	182.82953	182.74504	-764.64880	225.29420	203.55800	-590.16058	183.34377	173.81708	-882.61365	295.93387	144.52576	-778.54028	243.83229	571.35986	-640.57208	274.10385	159.05609	-601.70398	275.05661	159.03780	-528.03870	303.81421	146.25819										-744.38312	74.07288	576.73425	-794.21014	32.27721	174.42563										-875.78070	-78.64841	140.93260							-723.82562	145.31494	219.88132													-517.95313	-72.94166	143.09479	
182	3.620				-771.82294	269.64093	739.31567										-757.85883	-22.66216	206.14934	-703.79645	17.42366	526.73157				-679.71967	156.23488	160.66508							-548.12256	211.70078	164.13203				-755.15515	137.01138	571.84039							-797.44739	182.74532	182.87912	-764.58600	225.33925	203.65662	-590.33575	183.34929	173.80722	-882.68158	296.13046	144.56700	-778.84467	243.92728	571.69098	-640.57208	274.10385	159.05609	-601.97668	274.69653	158.91455	-528.09882	303.79733	146.35976										-744.28680	74.15113	576.81134	-794.21014	32.27721	174.42563										-875.78070	-78.64841	140.93260							-723.82562	145.31494	219.88132													-517.91980	-73.01032	143.17534	
183	3.640				-771.36774	269.40338	739.25470										-758.17139	-23.00146	205.84659	-703.66119	17.29830	526.66095				-679.62524	156.45134	160.44632							-548.09747	211.79272	164.08748				-754.77875	136.63834	571.85999							-797.47919	182.87813	182.87935	-764.57935	225.35309	203.67570	-590.20947	183.16185	173.92583	-882.69342	296.01968	144.41548	-778.53778	243.68658	571.35321	-640.57208	274.10385	159.05609	-601.90015	274.84802	159.14537	-528.14905	303.87628	146.15105										-743.99579	73.57204	576.56116	-794.31848	32.30164	174.49423				-876.12219	-78.89765	141.41621													-723.72961	145.48546	219.90961													-517.94177	-72.92817	143.09164	
184	3.660				-771.19110	269.21466	739.64203										-758.10730	-22.71824	205.91040	-703.70154	17.30559	526.77618				-679.63867	156.13190	160.35982							-548.09192	211.66647	164.00403				-754.27527	136.15147	571.99994							-797.44379	182.76561	182.76814	-764.51703	225.39716	203.77296	-590.16901	183.29243	173.79492	-882.61115	295.92255	144.45959	-778.42505	243.77373	571.58856	-640.57208	274.10385	159.05609	-601.76788	274.77509	159.56770	-527.92657	303.81699	146.22348										-744.12933	73.59691	576.65234	-794.30109	32.26147	174.48758				-875.76721	-78.54784	141.02655													-723.57666	145.46774	219.45464													-517.87372	-72.95023	143.21095	
185	3.680				-770.98914	269.08945	739.82562										-758.07349	-22.67811	205.87561	-703.66119	17.29830	526.66095				-679.47742	156.37036	160.28709							-548.03326	211.69934	164.09085				-754.29028	136.05223	571.87585							-797.46790	182.82246	182.77945	-764.64880	225.29420	203.55800	-590.23444	183.26656	173.85506	-882.76221	295.99045	144.36356	-778.05090	244.04573	571.86182	-640.57208	274.10385	159.05609	-601.60773	274.87799	159.48613	-528.13019	303.72070	146.30661										-744.03687	73.55469	576.81879	-794.21014	32.27721	174.42563				-875.76721	-78.54784	141.02655													-723.43768	145.37981	219.59061													-517.94177	-72.92817	143.09164	
